<?xml version="1.0" encoding="utf-8"?>
<!-- Generator: Adobe Illustrator 21.0.2, SVG Export Plug-In . SVG Version: 6.00 Build 0)  -->
<svg version="1.1" xmlns="http://www.w3.org/2000/svg" xmlns:xlink="http://www.w3.org/1999/xlink" x="0px" y="0px"
	 viewBox="0 0 201.1 221.5" style="enable-background:new 0 0 201.1 221.5;" xml:space="preserve">
<style type="text/css">
	.st0{fill:#0A0A0D;}
	.st1{font-family:'Ahellya-Italic';}
	.st2{font-size:45px;}
</style>
<g id="Layer_10_xA0_Image_1_">
	<path d="M199.1,49.3c-0.7,0.6-1.3,1.2-1.9,1.7c-1.2,1-2.4,1.9-3.6,2.8c-1.8,1.4-2.1,1.4-4.5,0.1c-1.6-0.9-3.2-1.7-4.9-2.4
		c-1.1-0.5-2.2-0.7-3.3-1c-0.6-0.2-1.1-0.1-1.1,0.7c-0.1,2.3-0.2,4.6-0.3,6.9c-0.1,1.7-0.3,3.4-0.1,5.1c0.2,2-0.9,3-2.3,3.9
		c-1.2,0.7-2.5,1.3-3.8,1.9c-0.9,0.4-1.3,0.1-1.3-0.8c0-2.7-0.2-5.4,0-8c0.4-6.7,1.1-13.5,1.3-20.2c0.4-9.6,0.5-19.3,0.9-29
		c0.1-2.1,0.7-4.1,1.1-6.2c0.3-1.2,1.2-1.9,2.3-2.2c0.4-0.1,0.8-0.2,1.2-0.3c1.9-0.5,3,0.2,3.1,2.2c0.1,1.4-0.1,2.8-0.1,4.2
		c0,0.3,0.1,0.7,0.2,1.3c1.4-0.9,2.6-1.7,3.7-2.5c3.8-2.5,10-3.5,13.2,1.3c1.8,2.7,2.3,5.8,2,8.9c-0.4,3.7-1.3,7.4-3.3,10.7
		c-1.5,2.4-3.3,4.7-5.1,6.9c-1.8,2.3-3.9,4.4-5.8,6.5c-0.5,0.6-0.2,1.2,0.7,1.7c1.1,0.5,2.3,0.8,3.3,1.4c2.3,1.4,4.7,2.7,7.3,3.5
		C198.4,48.8,198.6,49,199.1,49.3z M180.3,42.6c0.1,0.1,0.3,0.1,0.4,0.2c0.3-0.3,0.7-0.5,1-0.8c1.5-1.8,2.9-3.7,4.4-5.5
		c3-3.3,5.3-6.9,6.5-11.3c0.7-2.8,1.3-5.7,0.4-8.6c-0.8-2.7-2.6-3.8-5.3-3.1c-1.1,0.3-2.2,0.6-3.3,1c-2.5,0.8-2.9,1.2-3,3.9
		c-0.1,2.9,0,5.7-0.1,8.6c-0.2,4.3-0.5,8.6-0.7,12.9C180.6,40.8,180.4,41.7,180.3,42.6z"/>
	<path d="M47.1,155c-1-3.1-1-6.1-1-9.1c0.1-4.7,0.3-9.4,0.7-14.1c0.1-1.2-0.9-1.1-1.4-1.6c0.1-0.1,0.1-0.3,0.2-0.3
		c1.3-0.3,1.5-1.4,1.7-2.5c1-6.8,2.1-13.5,3.1-20.3c0.6-3.8,0.8-7.7,1.5-11.5c0.5-3.1,1.4-6.1,2.2-9.2c0.1-0.3,0.2-0.7,0.4-1
		c1.1-1.1,1.4-2.4,1.4-3.9c0-0.5,0.7-1.1,1.2-1.4c0.2-0.1,0.9,0.2,1.2,0.4c1.3,1,2,2.5,2.4,4c2,7.7,4.2,15.3,5.9,23.1
		c1.2,5.5,1.7,11.2,2.5,16.8c0.2,1.1,0.3,2.1,0.5,3.2c0.1,0.4,0.4,0.9,0.8,1.1c0.6,0.4,0.5,0.6,0.2,1.1c-0.3,0.4-0.5,1-0.4,1.5
		c0.1,3.5,0.4,7.1,0.5,10.6c0,1.3-0.2,2.6-0.4,3.9c0,0.3-0.5,0.7-0.8,0.7c-0.3,0-0.7-0.4-0.8-0.7c-0.8-2.7-1.6-5.4-2.2-8.2
		c-0.4-1.5-0.6-3.1-0.9-4.7c-0.2-0.9-0.6-1.2-1.5-1.2c-3.4,0.2-6.8,0.4-10.2,0.7c-0.4,0-0.9,0.7-1,1.2c-0.5,4.1-0.9,8.2-1.5,12.2
		c-0.3,2.4-0.8,4.8-1.4,7.2C49.6,154.5,48.4,154.7,47.1,155z M58.7,100.7c-0.1,0-0.3,0-0.4,0c-0.3,1.6-0.5,3.2-0.8,4.8
		c-1.2,7.1-2.5,14.2-3.7,21.3c-0.2,0.9,0.2,1.3,1.2,1.3c2.7-0.2,5.5-0.4,8.2-0.7c0.8-0.1,1.2-0.4,1-1.3c-0.4-2.4-0.7-4.9-1-7.3
		c-0.6-5.6-1.9-11-3.8-16.3C59.1,101.9,58.9,101.3,58.7,100.7z"/>
	<path d="M106.5,8.3c2.9,5.9,5.7,11.7,8.6,17.6c2.9,5.9,5.8,11.7,8.9,17.6c0-0.6-0.1-1.3-0.1-1.9c-0.1-5.4-0.3-10.8-0.4-16.2
		c-0.1-3.2-0.3-6.4,0.8-9.5c0.2-0.5,0.5-1.1,0.8-1.5c0.4-0.5,0.8-1.1,1.3-1.5c0.4-0.4,1.1-0.7,1.6-0.7c0.4,0,0.9,0.7,1,1.1
		c0.3,1.2,0.4,2.4,0.5,3.6c0.3,10.1,0.6,20.3,0.8,30.4c0.1,4-0.2,8-0.1,12c0,1.9-1.4,2.7-2.2,4c-3.4-6.2-6.7-12.3-10.1-18.4
		c-3.3-6.1-6.2-12.4-9.7-18.4c-0.1,0-0.3,0.1-0.4,0.1c-0.1,0.3-0.2,0.6-0.2,0.9c-0.4,5.2-1,10.4-1,15.7c0,7.1,0.4,14.2,0.7,21.3
		c0,1.1,0.1,2.1-0.9,2.8c-1.1,0.8-1.9,0.7-2.3-0.6c-0.5-1.5-1-3-1.3-4.6c-1.1-6.3-0.8-12.6-0.5-19c0.3-4.8,0.5-9.6,0.6-14.4
		c0.1-5.1,0.2-10.2,1.4-15.2c0.4-1.8,1.2-3.5,1.9-5.2C106.3,8.3,106.4,8.3,106.5,8.3z"/>
	<path d="M0.5,150.5c0.2-0.8,0.3-1.5,0.6-2.1c1.4-3.3,2.8-6.6,4.4-9.8c3.6-6.9,7.4-13.7,11.1-20.5c3.6-6.8,7.2-13.7,10.8-20.6
		c0.5-0.9,0.8-1.8,1-2.8c0.2-0.9,0-1.6-1-1.6c-1,0-2,0-3,0.2c-3.3,0.7-6.5,1.6-9.8,2.3c-1.6,0.4-3.3,0.6-4.9,1
		c-1,0.2-1.4-0.5-1.6-1.1c-0.1-0.3,0.3-0.9,0.7-1.2c1.6-1.3,3.4-2.3,5.5-2.8c4.3-1,8.6-2.3,12.9-3.2c2.8-0.6,5.6-0.9,8.4-1.3
		c1.7-0.2,2.8,0.7,2.5,2.4c-0.3,1.9-0.9,3.7-1.8,5.4c-2.2,4.5-4.7,8.8-6.7,13.4c-2.4,5.3-4.9,10.6-7.8,15.6
		c-1.6,2.8-3.2,5.5-4.7,8.3c-0.6,1-0.9,2.1-1.3,3.2c-1.4,3.2-2.8,6.3-4.3,9.5c-0.3,0.7-0.1,1,0.4,1.2c0.9,0.2,1.9,0.5,2.8,0.5
		c2.4,0,4.8-0.1,7.2,0c2.4,0,4.9,0.2,7.3,0.3c0.8,0,1.6,0,2.4,0c1,0,1.2,0.4,0.8,1.4c-1.3,3-4,2.9-6.5,3c-3.2,0.2-6.5-0.1-9.7-0.2
		c-3.6-0.1-7.1-0.1-10.7-0.2C3.8,150.8,2.3,150.6,0.5,150.5z"/>
	<path d="M112.8,145.5c-0.3-1.5-0.7-2.9-0.9-4.4c-0.6-4.9-1.1-9.8-1.5-14.8c-0.4-4.1-0.6-8.2-0.9-12.3c-0.1-1-0.3-2.1-0.5-3.1
		c-0.2,0-0.3,0-0.5,0c-2.5,6.7-5.1,13.4-7.6,20.1c-1.5-0.7-2.7-1.9-3.6-3.3c-4-6.2-7.1-12.9-9.8-19.7c-0.6-1.5-0.6-1.5-1.8-1.8
		c0,2.1,0,4,0,6c0.1,3.8,0.1,7.6,0.5,11.4c0.3,4,1.1,8,1.5,12c0.3,3.1,0.3,6.3,0.4,9.4c0,1-0.8,1.5-1.5,0.8
		c-0.7-0.6-1.5-1.6-1.6-2.5c-0.8-4-1.5-8-2.2-12c-1.3-7.7-1.1-15.5-1.4-23.3c-0.1-3.3-0.4-6.6-0.2-9.9c0.2-3.7,0.7-7.4,1.2-11.1
		c0.1-0.6,0.8-1.2,1.3-1.7c0.5,0.3,1.1,0.6,1.3,1.1c0.9,1.9,1.8,3.8,2.5,5.8c2,5.2,3.8,10.5,5.8,15.8c1.9,5.1,3.9,10.2,5.8,15.4
		c0.2,0.5,0.4,0.9,0.6,1.4c0.1,0,0.2,0,0.3,0c0.2-0.8,0.4-1.6,0.6-2.3c1.5-5.5,3-11,4.6-16.5c0.5-1.7,1.4-3.4,2.2-5
		c1.1-2.2,1.8-4.4,2.1-6.8c0.1-0.7,0.4-1.5,0.7-2.2c0.1-0.3,0.5-0.7,0.8-0.7c0.3,0,0.6,0.4,0.8,0.8c1.2,2.7,1.4,5.6,1.2,8.5
		c-0.3,4.6-0.3,9.3-0.2,13.9c0.2,6.5,0.7,12.9,0.9,19.4c0.1,3.5,0,6.9,0,10.4c0,0.4-0.1,0.8-0.2,1.3
		C113.1,145.4,112.9,145.5,112.8,145.5z"/>
	<path d="M65.8,33c0.4,1.9,0.1,2.9-1.5,3.7c-3.2,1.6-6.4,3-9.6,4.5c-1.1,0.5-2.2,0.8-3.3,1.3c-0.3,0.1-0.5,0.5-0.6,0.8
		c-0.9,5.4-1.9,10.9-2.8,16.3c0,0.1,0,0.2,0,0.7c2.6-0.4,5.3-0.5,7.7-1.3c3.3-1.1,6.4-2.8,9.6-4.2c0.4-0.2,0.7-0.3,1.1-0.4
		c0.3-0.1,1-0.1,1,0c0.1,0.4,0.3,1,0.1,1.3c-0.4,0.7-1,1.3-1.7,1.8c-3.8,3.3-8.5,4.9-13.1,6.5C50.3,65,47.8,65.4,45,65
		c-1.8-0.3-2.5-0.9-2.5-2.7c-0.1-2.1-0.2-4.2-0.4-6.3c-0.9-8.5-0.4-17,0.9-25.4c0.8-4.8,1.4-9.7,2.1-14.6c0.5-3.3,0.9-6.6,1.3-10
		c0.1-0.7,0-1.5,0.1-2.2c0.1-1,0.7-1.3,1.7-1.3c2,0,4,0,6,0c2.7,0,5.3-0.1,8-0.2c0.6,0,1.3-0.1,1.3,0.8c0,0.8-0.2,1.6-1.1,1.7
		c-1.3,0.3-2.6,0.5-3.9,0.7c-1.9,0.2-3.7,0.4-5.6,0.6c-0.9,0.1-1.2,0.4-1.2,1.3c0,2.5,0.1,5,0,7.5c-0.2,6.3-0.5,12.6-0.8,18.9
		c-0.1,1.8,0.1,2,1.9,1.7c4-0.8,8-1.6,12-2.3C65.1,33.1,65.4,33.1,65.8,33z"/>
	<path d="M174.1,121.2c0.1-0.6,0.4-1.3,0.4-2c0-6.7-0.2-13.4-0.2-20.1c0-2.4,0.7-4.7,2.3-6.7c0.5-0.6,0.9-1.2,1.3-1.8
		c1.6,1.2,1.8,2.6,2,4c1.5,7.8,0.9,15.6,0.7,23.4c0,0.7,0,1.3,0,2.2c0.4,0,0.8,0,1.2,0c2.6-0.1,5.1-0.2,7.7-0.3
		c1.5-0.1,1.5-0.1,1.5-1.6c0-4.4,0-8.9,0-13.3c0-1.8,0.5-3.4,1.7-4.9c0.7-0.9,1.3-1.9,1.9-2.9c1.5,0.8,2.1,2.4,2.3,3.9
		c0.5,3.6,0.8,7.2,1.1,10.8c0.2,2.7,0.3,5.4,0.3,8c0,1,0.4,1.9,0.8,2.8c0.3,0.7-0.6,1.7-0.6,2.6c-0.4,5.5-0.5,11.1-1,16.6
		c-0.2,2.8-1,5.5-1.6,8.2c-0.1,0.6-0.5,1.1-1,2.1c-0.5-0.7-0.9-1.1-1-1.6c-0.5-2.9-1-5.7-1.3-8.6c-0.5-4.8-0.8-9.6-1.1-14.5
		c-0.1-1-0.5-1.3-1.4-1.5c-1.9-0.3-3.7-0.6-5.5-1c-1-0.2-2-0.6-3-0.9c-0.8-0.2-1.2-0.1-1.3,0.9c-0.4,5.7-0.9,11.3-1.4,17
		c0,0.5-0.4,1.2-0.7,1.3c-0.9,0.2-0.9-0.7-1-1.3c-0.5-4.2-1-8.5-1.5-12.7c-0.2-1.9-0.4-3.8-0.8-5.7
		C174.8,122.8,174.3,121.9,174.1,121.2z"/>
	<path d="M139.4,45.9c0.5-4.9,0.9-10.1,1.5-15.3c0.6-4.9,1.4-9.8,2.5-14.6c0.4-2,1.1-4.1,2.7-5.7c0.3-0.3,0.5-0.7,0.8-1.1
		c0.5-0.7,0.7-1.8,1.4-2.2c1.5-0.8,3.2-1.2,4.9-0.8c2.7,0.7,4.6,2.6,6.2,4.7c3.4,4.6,5.3,9.8,6.1,15.4c0.9,6.4,1.3,12.9,0.4,19.4
		c-1,6.7-4.1,12.2-9.7,16.2c-1,0.7-2,1.4-3.1,2.1c-2.7,1.7-5.6,1.4-8.2-0.5c-2.8-2-3.7-5-4.3-8C139.8,52.5,139.8,49.4,139.4,45.9z
		 M143.7,44.8c0.2,2.6,0.4,5.2,0.7,7.7c0.2,1.9,0.8,3.7,2,5.2c0.9,1.1,2.1,1.6,3.5,1.2c2-0.5,3.6-1.6,5.2-2.9
		c2.9-2.6,5.1-5.6,5.9-9.5c0.8-4.1,0.9-8.2,0.6-12.3c-0.3-4.6-1-9.1-3.2-13.2c-1.6-3.1-4.1-5.3-7.2-6.8c-1.5-0.8-2.8,0-3.1,1.7
		c-0.3,1.3-0.6,2.6-0.9,3.8c-0.2,0.9-0.7,1.7-0.8,2.6C144.8,29.8,143.9,37.3,143.7,44.8z"/>
	<path d="M130.8,96.1c0.2-0.1,0.4-0.2,0.7-0.2c7.5-1.2,14.7-3.3,21.9-5.5c0.4-0.1,0.9-0.4,1.2-0.7c1.4-1.3,2.6-1.4,4.2-0.5
		c0.4,0.2,0.9,0.3,1.4,0.2c3.2-0.1,6.3-0.3,9.5-0.5c0.9,0,2.2-0.1,2.3,0.9c0.1,0.6-0.8,1.6-1.5,2c-3.1,1.4-6.4,2.7-9.6,4
		c-0.8,0.3-1.2,0.6-1.1,1.6c1.2,8.8,0.8,17.7-0.1,26.5c-0.5,4.1-1,8.2-1.6,12.4c-0.6,3.7-2,7.2-3.5,10.7c-0.1,0.3-0.6,0.5-0.8,0.7
		c-0.2-0.3-0.6-0.6-0.6-0.9c-0.2-3.2-0.6-6.4-0.5-9.5c0.1-7.7,0.4-15.3,0.6-23c0.1-5.6,0-11.3,0-16.9c0-1.1-0.5-1.5-1.4-1.3
		c-1.8,0.3-3.7,0.6-5.5,0.9c-3.2,0.5-6.4,1.2-9.6,1.3c-1.9,0-3.9-1.1-5.8-1.7C130.7,96.5,130.8,96.3,130.8,96.1z"/>
	<path d="M73.7,39.2c0.3-6.5,0.3-11.4,0.8-16.3c0.3-3.7,0.9-7.4,1.9-10.9c0.5-2,2-3.7,3.1-5.5c0.6-0.9,1.3-1.5,2.8-0.8
		c3.2,1.4,5.8,3.4,7.8,6.2c0.6,0.9,1.1,1.9,1.5,3c2.3,6.4,3.1,13,3.1,19.8c0.1,5.6-0.8,11-2.5,16.3c-1.3,3.8-2.8,7.6-5.8,10.5
		c-1,0.9-2,1.8-3.2,2.5c-1.9,1.2-4.7,0.1-5.9-1.9c-1.7-2.9-2.2-6.2-2.6-9.4C74.3,47.7,74,42.6,73.7,39.2z M77,39.6
		c0.4,5,0.8,10.1,1.3,15.3c0.2,1.7,0.7,3.5,2.1,4.7c0.6,0.5,1.3,0.7,2,0.2c2.6-2.2,4.8-4.7,5.9-8c0.5-1.7,1.1-3.4,1.3-5.1
		c0.6-4.2,1.3-8.4,1.6-12.6c0.2-2.8-0.1-5.7-0.4-8.5c-0.4-3.7-1.6-7-4.8-9.2c-1.2-0.8-2.3-1.6-3.5-2.4c-1.2-0.8-1.5-0.7-1.8,0.6
		c-0.6,2.9-1.2,5.8-1.6,8.7C78.3,28.8,77.7,34.1,77,39.6z"/>
	<path d="M12.3,41.8c-0.4-6.3-0.7-12.5-1.2-18.8c-0.2-3.2-0.7-6.4-0.8-9.7c0-3.3,0.1-6.7,0.6-10c0.4-2.9,1.9-3.4,4.4-1.9
		c0.5,0.3,0.7,1.2,0.7,1.8c0,2-0.3,3.9-0.3,5.9c-0.1,5.8-0.1,11.7,0,17.5c0.1,5.5,0.1,11,0.4,16.5c0.2,3.4,0.9,6.7,1.3,10.1
		c0.1,1.1,0.7,1.6,1.9,1.5c3.1-0.3,6.1-0.6,9.2-0.9c0.9-0.1,1.8-0.3,2.6-0.1c0.7,0.1,1.6,0.6,1.9,1.1c1.2,2.1,0.2,4.8-2,5.7
		c-3.1,1.3-6.3,2.6-9.4,3.9c-1.1,0.5-2.1,1.1-3.1,1.8c-0.8,0.5-1.3,0.4-1.7-0.5c-1.4-3.3-2.4-6.6-2.9-10.1c-0.5-3.8-1-7.7-1.5-11.5
		C12.3,43.4,12.3,42.6,12.3,41.8C12.2,41.8,12.3,41.8,12.3,41.8z"/>
	<path d="M125.4,148.5c-2.7-3.9-3.2-47.6-0.8-54.2c1,1.3,1.8,2.6,1.9,4.2c0.3,3.6,0.5,7.2,0.6,10.9c0.4,9.7,0.7,19.5,1.1,29.2
		c0.1,2.5-0.2,4.9-1.6,7.1C126.2,146.4,125.9,147.4,125.4,148.5z"/>
</g>
<g id="illustration">
	<text transform="matrix(1 0 0 1 -2.2797 210.2735)" class="st0 st1 st2">illustration</text>
</g>
</svg>
